<svg xmlns="http://www.w3.org/2000/svg" fill="none" viewBox="0 0 231 116"
    class="svg-icon page-header__logo" color="currentColor">
    <path fill="currentColor" d="M3.844 75V9.375H12V75zm12.844 0v-8.062q9.562 0 12.843-3 2.813-2.626 2.813-7.407V27.844q0-8.25-9.469-9.938-2.625-.468-6.187-.468V9.375q16.688 0 21.843 9.75 2.063 3.75 2.063 8.719V56.53q0 17.625-21.469 18.469zm31.875-57.656q0-2.907 2.718-4.125a5 5 0 0 1 1.875-.375q2.812 0 4.125 2.625.375.938.375 1.875 0 2.813-2.625 4.125-.938.375-1.875.375-2.906 0-4.218-2.625a5 5 0 0 1-.376-1.875M49.219 75V25.594h7.875V75zm15.093 17.344 1.97-7.313h17.624q5.25-.188 7.688-4.125.75-1.312.75-2.344v-6.75q-3.844 2.72-7.688 2.907V67.5q4.125 0 6.563-3.469 1.125-1.594 1.125-3.187V37.875q0-3.562-3.938-5.625-1.875-.937-3.75-.937v-7.407q4.219 0 7.406 2.625.189.094.282.188v-2.813h7.594v54.657q0 4.03-3.657 8.343-4.594 5.344-11.344 5.438zm.938-31.406V37.5q.094-4.406 3.938-8.625Q73.78 24 80.53 23.906v7.407q-4.594 0-6.937 3.937-.844 1.406-.844 2.531v23.063q0 2.813 2.906 4.968 2.157 1.5 4.875 1.5v7.407q-8.625-.094-13.125-7.313-2.156-3.468-2.156-6.469M107.156 75V37.969q0-4.5 4.032-8.813 4.968-5.062 12.281-5.062v7.781q-4.782 0-7.313 3.75-1.03 1.594-1.031 3.281V75zm20.438-43.125v-7.781q8.719 0 13.594 7.031 2.624 3.657 2.624 6.844V75h-7.968V38.906q0-2.906-2.906-5.156-2.344-1.875-5.344-1.875m24.094-14.531q0-2.907 2.718-4.125a5 5 0 0 1 1.875-.375q2.813 0 4.125 2.625.375.938.375 1.875 0 2.813-2.625 4.125-.937.375-1.875.375-2.905 0-4.219-2.625a5 5 0 0 1-.374-1.875M152.344 75V25.594h7.875V75zm14.344-42.562v-7.594h6.187V8.625h7.969v16.219h6v7.687h-6v26.907q0 6.656 5.437 7.406 1.031.187 2.063.187h1.312L191.438 75h-3.376q-11.53-.093-14.156-8.625-.937-3.187-.937-7.875l-.094-26.062zm25.687-8.157h8.344l14.25 39.657-9.657 28.874h-7.968l9.187-28.968zm20.719 21.75 8.531-21.75h8.25L217.406 57h-.844zM103.6 101.93V91.88q0-1.476.984-2.993 1.968-3.076 5.906-3.076v3.28a3.8 3.8 0 0 0-2.133.616q-1.353.943-1.353 2.256v9.967q0 .573.328 1.148.944 1.641 3.158 1.641V108q-3.24 0-5.209-2.092-1.681-1.805-1.681-3.978m8.736-12.797V85.81q2.133 0 3.855 1.271 2.461 1.887 2.461 4.88l-3.199 1.231v-.984a3.9 3.9 0 0 0-.328-1.353q-.78-1.723-2.789-1.723m0 18.908v-3.322q.656 0 1.271-.205 2.093-.697 2.297-2.994l.041-.082v-.821l3.2 1.19q0 2.174-1.723 4.019-2.174 2.256-5.086 2.215m9.393-6.111V91.799q0-1.928 1.722-3.774 2.133-2.215 5.332-2.215v3.323q-2.42 0-3.363 2.01-.287.615-.287 1.23v9.023q0 1.518 1.394 2.584a3.66 3.66 0 0 0 2.256.739v3.322q-3.896 0-6.029-3.158-1.025-1.559-1.025-2.953m8.818 6.111v-3.322q2.174 0 3.117-1.969.328-.657.328-1.271v-9.106q0-1.682-1.435-2.666-.903-.574-2.051-.574V85.81q3.773 0 5.824 3.076 1.025 1.517 1.025 2.912v10.131q0 2.01-1.722 3.896-2.01 2.174-5.086 2.215m9.598-6.111V91.799q.04-2.215 2.009-4.102 1.928-1.845 4.512-1.845h3.24v3.322h-3.199q-1.682 0-2.748 1.517-.451.698-.451 1.313v9.844q0 1.312 1.476 2.256.862.574 1.764.574h3.158V108h-3.117q-3.65 0-5.66-3.158-.984-1.559-.984-2.912m11.73 6.07.041-28.998h3.527V108zm6.85-6.07V91.758q.041-1.887 1.804-3.733 2.133-2.173 5.168-2.215v3.24q-1.969 0-3.076 1.723-.451.74-.451 1.354v2.789h9.187v-2.789q0-1.846-1.886-2.707a4.1 4.1 0 0 0-1.764-.41v-3.2q2.83 0 5.045 2.01 1.845 1.764 1.887 3.897v6.521H162.17v3.692q0 1.148 1.312 2.132 1.067.74 2.256.739V108q-3.732 0-5.865-3.035-1.149-1.6-1.148-3.035m8.982 6.07v-3.24q2.461 0 3.691-2.133.246-.451.37-.861l2.912 1.066q-.738 2.83-3.364 4.266a7.5 7.5 0 0 1-3.609.902m9.434-5.824 3.24-.615q0 1.845 1.928 2.912.943.45 1.804.492v3.24q-3.978 0-5.947-2.871-1.025-1.517-1.025-3.158m.205-10.09q0-3.732 3.404-5.537 1.641-.862 3.281-.862v3.2q-1.887 0-2.912 1.558-.533.78-.533 1.64 0 1.314 2.051 2.134 1.559.656 6.029 1.722 2.789.575 3.979 2.748.615 1.149.615 2.584 0 3.938-3.158 5.825-1.846 1.107-4.225 1.107v-3.24q1.887 0 3.158-1.313.903-.944.903-2.214 0-1.641-3.241-2.626a65 65 0 0 0-2.625-.697q-1.928-.45-2.789-.738-3.117-1.23-3.773-3.733a7 7 0 0 1-.164-1.558m8.49-3.158v-3.24q3.528 0 5.701 2.624 1.353 1.682 1.354 3.528l-3.241.533q0-2.256-2.461-3.158-.738-.287-1.353-.287"></path>
</svg>